<?xml version="1.0" encoding="utf-8"?>
<!-- Generator: Adobe Illustrator 17.0.0, SVG Export Plug-In . SVG Version: 6.00 Build 0)  -->
<!DOCTYPE svg PUBLIC "-//W3C//DTD SVG 1.1//EN" "http://www.w3.org/Graphics/SVG/1.1/DTD/svg11.dtd">
<svg version="1.1" id="Layer_1" xmlns="http://www.w3.org/2000/svg" xmlns:xlink="http://www.w3.org/1999/xlink" x="0px" y="0px"
	 width="820px" height="791px" viewBox="0 0 820 791" enable-background="new 0 0 820 791" xml:space="preserve">
<g id="connectors">
	<path d="M415.280701,394.385986c-7.943573,11.74295-17.820984,12.85495-28.176697,3.17218l2.906281,25.81485
		c7.943604-11.74295,17.820984-12.85495,28.176697-3.17218L415.280701,394.385986z"/>
	<path d="M369.181488,392.626587c-12.079193,2.635223-18.984131-2.604584-19.697327-14.947296l-15.703705,20.694122
		c12.079193-2.635223,18.984131,2.604584,19.697327,14.947296L369.181488,392.626587z"/>
	<path d="M310.472015,372.728058c-4.904968,15.30191-15.296173,19.654358-29.642365,12.416016l10.036285,23.960907
		c4.904968-15.30188,15.296173-19.654358,29.642365-12.416016L310.472015,372.728058z"/>
</g>
<g id="cbg">
	<path d="M411.846497,405.59201c0-11.045685,8.954315-20,20-20c11.045715,0,20,8.954315,20,20s-8.954315,20-20,20
		C420.800781,425.59201,411.846497,416.637695,411.846497,405.59201z"/>
	<path d="M353.444489,412.166992c0-11.045715,8.954315-20,20-20s20,8.954315,20,20c0,11.045715-8.954315,20-20,20
		S353.444489,423.212677,353.444489,412.166992z"/>
	<path d="M309.517487,378.833008c0-11.045715,8.954315-20,20-20s20,8.954315,20,20c0,11.045715-8.954315,20-20,20
		S309.517487,389.878693,309.517487,378.833008z"/>
	<path d="M251.820496,403c0-11.045715,8.954315-20,20-20c11.045715,0,20,8.954315,20,20c0,11.045715-8.954315,20-20,20
		C260.77478,423,251.820496,414.045685,251.820496,403z"/>
</g>
<g id="NET">
	<path d="M499.90448,425.964996h-10.745972l-15.723022-30.242004h-0.246002c0.108978,1.404022,0.199982,2.799011,0.27298,4.184021
		c0.072021,1.186005,0.132019,2.429993,0.178009,3.731995c0.045013,1.303986,0.067993,2.475006,0.067993,3.514008v18.811981
		h-7.574005v-39.975983h10.690979l15.695007,29.940979h0.164001c-0.054993-1.384979-0.119019-2.751984-0.190979-4.10199
		c-0.019012-0.583984-0.041016-1.179993-0.067993-1.791016c-0.027008-0.610992-0.051025-1.220978-0.067993-1.83197
		c-0.019012-0.610016-0.032013-1.197998-0.041016-1.764008c-0.01001-0.563995-0.014008-1.075012-0.014008-1.531006v-18.92099
		h7.60202V425.964996z"/>
	<polygon points="533.017517,425.964996 509.994476,425.964996 509.994476,385.989014 533.017517,385.989014 533.017517,392.934021 
		518.47052,392.934021 518.47052,401.710999 532.005493,401.710999 532.005493,408.657013 518.47052,408.657013 
		518.47052,418.964996 533.017517,418.964996 	"/>
	<polygon points="558.172485,425.964996 549.722473,425.964996 549.722473,393.042999 539.6875,393.042999 539.6875,385.989014 
		568.179504,385.989014 568.179504,393.042999 558.172485,393.042999 	"/>
</g>
<g id="b1">
	<circle fill-opacity="0" cx="271.820496" cy="403" r="20"/>
	<g>
		<path fill="#FFFFFF" d="M272.415497,412.157013c-1.25,0-2.401001-0.182007-3.453003-0.546997
			c-1.053009-0.365021-1.959015-0.914001-2.718994-1.64801c-0.761017-0.734009-1.35202-1.661987-1.77301-2.779999
			c-0.421997-1.118988-0.632996-2.436005-0.632996-3.945007c0-1.531006,0.191986-2.868988,0.578003-4.015991
			c0.384979-1.145996,0.923981-2.10199,1.617004-2.867004c0.691986-0.765991,1.524994-1.34198,2.5-1.72699
			c0.973999-0.38501,2.054993-0.578003,3.241974-0.578003c1.156006,0,2.200012,0.174011,3.133026,0.52301
			c0.931976,0.349976,1.723999,0.860992,2.375,1.539001c0.649994,0.677979,1.149994,1.507996,1.5,2.491974
			c0.348999,0.984009,0.52298,2.111023,0.52298,3.383026v2.311981h-10.656006
			c0.021027,0.666016,0.127014,1.268005,0.320007,1.804993c0.192017,0.537018,0.463013,0.990021,0.812012,1.359009
			s0.770996,0.653015,1.265991,0.851013c0.494019,0.196991,1.059998,0.296997,1.695007,0.296997
			c0.531006,0,1.03299-0.028992,1.507996-0.085999c0.473999-0.057007,0.934998-0.143005,1.382996-0.257996
			c0.447021-0.115021,0.890991-0.257996,1.328003-0.429016c0.437988-0.171997,0.88501-0.372986,1.343994-0.60199v3.686981
			c-0.416992,0.219025-0.835999,0.404022-1.257996,0.555023c-0.421997,0.149994-0.867004,0.278992-1.335999,0.382996
			s-0.975006,0.179993-1.515991,0.22699C273.65448,412.132996,273.060486,412.157013,272.415497,412.157013z M271.805481,397.438995
			c-0.843994,0-1.544983,0.296997-2.10199,0.891022c-0.558014,0.593994-0.877991,1.524994-0.960999,2.796997h6.078003
			c-0.011017-0.531006-0.078003-1.020996-0.203003-1.469025c-0.125-0.447998-0.312012-0.835999-0.562012-1.164001
			c-0.25-0.327972-0.561981-0.585999-0.937988-0.77298C272.741486,397.533997,272.305481,397.438995,271.805481,397.438995z"/>
	</g>
</g>
<g id="b2">
	<circle fill-opacity="0" cx="329.517487" cy="378.833008" r="20"/>
	<g>
		<path fill="#FFFFFF" d="M326.692505,390.226013c-0.896027,0-1.71402-0.192993-2.453003-0.578003
			c-0.740021-0.38501-1.375-0.955017-1.906006-1.710999c-0.531006-0.756012-0.945007-1.695007-1.242004-2.820007
			s-0.445007-2.428009-0.445007-3.906006c0-1.5,0.14801-2.813995,0.445007-3.944977
			c0.296997-1.131012,0.718994-2.078003,1.265991-2.844025c0.546997-0.765991,1.200012-1.34198,1.960999-1.72699
			c0.76001-0.38501,1.598999-0.578003,2.515991-0.578003c0.562012,0,1.078003,0.063995,1.546997,0.195007
			c0.469025,0.131012,0.891022,0.312012,1.266022,0.546997c0.375,0.235016,0.710999,0.506012,1.007996,0.812012
			c0.296997,0.306976,0.559998,0.643005,0.789001,1.007996h0.156006c-0.062012-0.406006-0.120026-0.817993-0.171997-1.234009
			c-0.053009-0.354004-0.097015-0.731995-0.133026-1.132996c-0.036987-0.399994-0.054993-0.77301-0.054993-1.117004v-5.593994
			h4.765991v24.312012h-3.640991l-0.921997-2.266022h-0.203003c-0.218994,0.354004-0.468994,0.688995-0.75,1.008026
			c-0.281006,0.31897-0.606995,0.59198-0.97699,0.819977c-0.369995,0.229004-0.786987,0.412018-1.25,0.546997
			C327.798492,390.15802,327.275482,390.226013,326.692505,390.226013z M328.426483,386.429016
			c0.562012,0,1.041016-0.096008,1.438019-0.289001c0.395996-0.193024,0.716003-0.484009,0.960999-0.875
			c0.243988-0.391022,0.427002-0.877014,0.546997-1.460999c0.118988-0.584015,0.184998-1.266022,0.195007-2.046997v-0.516022
			c0-0.843994-0.053009-1.593994-0.156006-2.25c-0.104004-0.656006-0.276001-1.204987-0.515991-1.64798
			c-0.240021-0.443024-0.562012-0.779022-0.969025-1.008026c-0.407013-0.228973-0.916992-0.343994-1.530975-0.343994
			c-1,0-1.734009,0.451019-2.203003,1.35202c-0.469025,0.899994-0.703003,2.210999-0.703003,3.929993
			s0.235992,3.007996,0.710999,3.867004C326.673492,385.998993,327.416504,386.429016,328.426483,386.429016z"/>
	</g>
</g>
<g id="b3">
	<circle fill-opacity="0" cx="373.444489" cy="412.166992" r="20"/>
	<g>
		<path fill="#FFFFFF" d="M381.508484,400.36499v2.594025l-2.546997,0.796997c0.208008,0.354004,0.354004,0.721008,0.437988,1.10199
			c0.083008,0.381012,0.125,0.789001,0.125,1.22702c0,0.884979-0.140991,1.694977-0.421997,2.431
			c-0.281006,0.733978-0.697998,1.360992-1.25,1.882996c-0.552979,0.520996-1.244995,0.923981-2.078003,1.210999
			c-0.833984,0.286987-1.802979,0.429993-2.905975,0.429993c-0.240021,0-0.5-0.014008-0.781006-0.039001
			s-0.48999-0.054993-0.625-0.085999c-0.209015,0.178009-0.373016,0.360992-0.492004,0.554993
			c-0.119995,0.193024-0.179993,0.424011-0.179993,0.695007c0,0.218994,0.066986,0.393005,0.203003,0.52301
			c0.13501,0.130981,0.311981,0.233978,0.531006,0.311981c0.218994,0.078003,0.473999,0.131012,0.765991,0.156006
			c0.290985,0.024994,0.593994,0.039001,0.906006,0.039001h2.718994c0.843994,0,1.598999,0.096008,2.266022,0.289001
			c0.665985,0.192993,1.230988,0.485992,1.695007,0.882996c0.462982,0.395996,0.820007,0.89801,1.070007,1.507996
			c0.25,0.609009,0.375,1.335999,0.375,2.179993c0,0.990021-0.197998,1.883026-0.593994,2.680023s-0.987,1.475006-1.77301,2.030975
			c-0.786987,0.557007-1.764008,0.984009-2.929993,1.281006c-1.166992,0.296997-2.515991,0.445007-4.046997,0.445007
			c-1.188019,0-2.225006-0.110992-3.109009-0.335999c-0.885986-0.225006-1.625-0.546997-2.218994-0.968994
			s-1.039001-0.929993-1.335999-1.52301c-0.296997-0.593994-0.445007-1.265991-0.445007-2.015991
			c0-0.63501,0.109009-1.188019,0.328003-1.656006c0.218994-0.468994,0.51001-0.868988,0.875-1.203003
			c0.364014-0.333984,0.778015-0.604004,1.242004-0.812012c0.462982-0.208984,0.938995-0.368988,1.429993-0.483978
			c-0.218994-0.094025-0.436005-0.225006-0.64801-0.391022c-0.213989-0.165985-0.406006-0.358978-0.578003-0.577972
			c-0.171997-0.219025-0.311981-0.460999-0.421997-0.72702c-0.109009-0.265991-0.164001-0.544983-0.164001-0.835999
			c0-0.333984,0.049011-0.634979,0.14801-0.906006c0.098999-0.270996,0.242004-0.52298,0.429993-0.757996
			c0.188019-0.233978,0.421997-0.454987,0.703003-0.664001c0.281006-0.208984,0.598999-0.421997,0.953003-0.640991
			c-0.916992-0.395996-1.643982-1.031006-2.179993-1.906006c-0.536987-0.875-0.804993-1.906982-0.804993-3.095001
			c0-0.937988,0.145996-1.774994,0.437988-2.515991c0.291016-0.73999,0.718994-1.367004,1.281006-1.882996
			s1.26001-0.90799,2.093994-1.179993c0.833008-0.270996,1.791016-0.406006,2.875-0.406006
			c0.208008,0,0.442017,0.014008,0.703003,0.039001c0.26001,0.024994,0.518005,0.057007,0.77301,0.093994
			c0.255005,0.037018,0.492004,0.076019,0.710999,0.117004c0.218994,0.041016,0.390991,0.078003,0.515991,0.109009
			L381.508484,400.36499z M369.008484,420.272003c0,0.26001,0.054993,0.514008,0.164001,0.757996
			c0.109009,0.244019,0.289001,0.460999,0.539001,0.64801s0.578003,0.335999,0.984009,0.445007
			c0.406006,0.108978,0.906006,0.164001,1.5,0.164001c1.625,0,2.848999-0.229004,3.671997-0.688019
			c0.822021-0.458984,1.234009-1.071991,1.234009-1.843994c0-0.656006-0.256012-1.093994-0.766022-1.312012
			c-0.511017-0.218994-1.303009-0.328003-2.375-0.328003h-2.203003c-0.281006,0-0.584015,0.03302-0.906006,0.10202
			c-0.322998,0.067993-0.619995,0.186005-0.890991,0.35199c-0.270996,0.166016-0.498016,0.389008-0.679993,0.664001
			C369.099487,419.507996,369.008484,419.856018,369.008484,420.272003z M370.727478,406.052002
			c0,0.946991,0.177002,1.682007,0.531006,2.20401c0.354004,0.520996,0.890991,0.780975,1.609009,0.780975
			c0.75,0,1.291016-0.259979,1.625-0.780975c0.333008-0.522003,0.5-1.257019,0.5-2.20401
			c0-0.937988-0.164001-1.682007-0.492004-2.234009c-0.328003-0.552979-0.872986-0.828003-1.632996-0.828003
			C371.440491,402.98999,370.727478,404.011017,370.727478,406.052002z"/>
	</g>
</g>
<g id="b4">
	<circle fill-opacity="0" cx="431.846497" cy="405.59201" r="20"/>
	<g>
		<path fill="#FFFFFF" d="M432.440491,414.748993c-1.25,0-2.401001-0.181976-3.453003-0.546997
			c-1.052979-0.36499-1.958984-0.914001-2.718994-1.64798c-0.760986-0.734009-1.35199-1.662018-1.77301-2.781006
			c-0.420959-1.119019-0.632996-2.436005-0.632996-3.945007c0-1.531006,0.192017-2.868988,0.578003-4.015991
			c0.38501-1.145996,0.924011-2.10199,1.617004-2.867004c0.692017-0.765991,1.525024-1.34201,2.5-1.72699
			c0.973999-0.38501,2.054993-0.578003,3.242004-0.578003c1.156006,0,2.200012,0.173981,3.132996,0.52298
			c0.932007,0.350006,1.723999,0.861023,2.375,1.539001c0.650024,0.678009,1.150024,1.508026,1.5,2.492004
			c0.348999,0.984009,0.52301,2.110992,0.52301,3.382996v2.312012H428.6745c0.020996,0.665985,0.127014,1.268005,0.320007,1.804993
			c0.192017,0.537018,0.463013,0.990021,0.812012,1.359009s0.770996,0.653992,1.265991,0.85199
			c0.494019,0.197021,1.059998,0.297028,1.695007,0.297028c0.531006,0,1.03302-0.029022,1.507996-0.085999
			c0.473999-0.057007,0.934998-0.143005,1.382996-0.258026c0.447021-0.11499,0.890991-0.257996,1.328003-0.429993
			c0.437988-0.171997,0.88501-0.372986,1.343994-0.60199v3.687988c-0.416992,0.218994-0.835999,0.403992-1.257996,0.554993
			s-0.867004,0.279022-1.335999,0.383026c-0.468994,0.103973-0.975006,0.179993-1.515991,0.22699
			C433.679504,414.725006,433.086487,414.748993,432.440491,414.748993z M431.831482,400.029999
			c-0.843994,0-1.544983,0.296997-2.10199,0.890991c-0.557983,0.594025-0.877991,1.525024-0.960999,2.797028h6.078003
			c-0.010986-0.531006-0.078003-1.021027-0.203003-1.469025s-0.312012-0.835999-0.562012-1.164001
			s-0.561981-0.585999-0.937988-0.77298C432.767487,400.125,432.331482,400.029999,431.831482,400.029999z"/>
	</g>
</g>
</svg>
