<?xml version="1.0" encoding="utf-8"?>
<!-- Generator: Adobe Illustrator 17.0.0, SVG Export Plug-In . SVG Version: 6.00 Build 0)  -->
<!DOCTYPE svg PUBLIC "-//W3C//DTD SVG 1.1//EN" "http://www.w3.org/Graphics/SVG/1.1/DTD/svg11.dtd">
<svg version="1.1" id="Layer_1" xmlns="http://www.w3.org/2000/svg" xmlns:xlink="http://www.w3.org/1999/xlink" x="0px" y="0px"
	 width="340.157471px" height="113.385826px" viewBox="0 0 340.157471 113.385826"
	 enable-background="new 0 0 340.157471 113.385826" xml:space="preserve">
<g id="connectors">
	<path fill="#ED1C24" d="M182.878342,55.240185c-7.943573,11.742947-17.820984,12.854946-28.176697,3.17218l2.906281,25.814846
		c7.943604-11.74295,17.820984-12.85495,28.176697-3.17218L182.878342,55.240185z"/>
	<path fill="#ED1C24" d="M136.779129,53.480785c-12.079193,2.635223-18.984131-2.604584-19.697327-14.947296l-15.703705,20.694122
		c12.079193-2.635223,18.984131,2.604584,19.697327,14.947292L136.779129,53.480785z"/>
	<path fill="#ED1C24" d="M78.069656,33.582256c-4.904968,15.30191-15.296173,19.654358-29.642365,12.416016l10.036285,23.960903
		c4.904968-15.301876,15.296173-19.654354,29.642365-12.416012L78.069656,33.582256z"/>
</g>
<g id="cbg">
	<path fill="#ED1C24" d="M179.444138,66.446205c0-11.045681,8.954315-19.999996,20-19.999996c11.045715,0,20,8.954315,20,19.999996
		s-8.954315,20-20,20C188.398422,86.446205,179.444138,77.49189,179.444138,66.446205z"/>
	<path fill="#ED1C24" d="M121.04213,73.021187c0-11.045712,8.954315-19.999996,20-19.999996s20,8.954315,20,19.999996
		c0,11.045715-8.954315,20-20,20S121.04213,84.066872,121.04213,73.021187z"/>
	<path fill="#ED1C24" d="M77.115128,39.687206c0-11.045717,8.954315-20.000002,20-20.000002s20,8.954315,20,20.000002
		c0,11.045715-8.954315,20-20,20S77.115128,50.732891,77.115128,39.687206z"/>
	<path fill="#ED1C24" d="M19.418139,63.854198c0-11.045715,8.954315-20,19.999998-20c11.045715,0,20,8.954315,20,20
		c0,11.045712-8.954315,19.999996-20,19.999996C28.372423,83.854195,19.418139,74.899879,19.418139,63.854198z"/>
</g>
<g id="net">
	<path d="M258.536041,83.088661h-8.935547V63.957802c0-2.36377-0.356445-4.13623-1.069336-5.317871
		s-1.850586-1.772461-3.413086-1.772461c-1.171875,0-2.148438,0.234375-2.929688,0.703125s-1.401367,1.162109-1.860352,2.080078
		s-0.786133,2.050781-0.981445,3.398438c-0.195312,1.348145-0.292969,2.891113-0.292969,4.629395v15.410156h-8.935547V50.334267
		h6.826172l1.201172,4.189453h0.498047c0.46875-0.839844,1.040039-1.5625,1.713867-2.167969s1.411133-1.103516,2.211914-1.494141
		s1.650391-0.678711,2.548828-0.864258s1.816406-0.27832,2.753906-0.27832c1.601562,0,3.056641,0.229492,4.365234,0.688477
		s2.431641,1.176758,3.369141,2.15332s1.660156,2.22168,2.167969,3.735352s0.761719,3.325195,0.761719,5.43457V83.088661z"/>
	<path d="M282.120026,83.674599c-2.34375,0-4.501953-0.341797-6.474609-1.025391s-3.671875-1.713867-5.097656-3.09082
		s-2.53418-3.115234-3.325195-5.214844s-1.186523-4.56543-1.186523-7.397461c0-2.871094,0.361328-5.381348,1.083984-7.529785
		s1.733398-3.94043,3.032227-5.375977s2.861328-2.514648,4.6875-3.237305s3.852539-1.083984,6.079102-1.083984
		c2.167969,0,4.125977,0.327148,5.874023,0.981445s3.232422,1.616211,4.453125,2.885742s2.158203,2.827148,2.8125,4.672852
		s0.981445,3.959961,0.981445,6.343262v4.335938h-19.980469c0.039062,1.25,0.239258,2.37793,0.600586,3.383789
		s0.869141,1.855469,1.523438,2.548828s1.445312,1.225586,2.373047,1.59668s1.987305,0.556641,3.178711,0.556641
		c0.996094,0,1.938477-0.053711,2.827148-0.161133s1.75293-0.268555,2.592773-0.483398s1.669922-0.483398,2.490234-0.805664
		s1.660156-0.698242,2.519531-1.12793v6.914062c-0.78125,0.410156-1.567383,0.756836-2.358398,1.040039
		s-1.625977,0.522461-2.504883,0.717773s-1.826172,0.336914-2.841797,0.424805S283.330963,83.674599,282.120026,83.674599z
		 M280.977448,56.076454c-1.582031,0-2.895508,0.556641-3.94043,1.669922s-1.645508,2.861328-1.801758,5.244141h11.396484
		c-0.019531-0.996094-0.146484-1.914062-0.380859-2.753906s-0.585938-1.567383-1.054688-2.182617
		s-1.054688-1.098633-1.757812-1.450195S281.914948,56.076454,280.977448,56.076454z"/>
	<path d="M315.899323,76.555458c0.878906,0,1.713867-0.097656,2.504883-0.292969s1.59668-0.439453,2.416992-0.732422v6.650391
		c-0.839844,0.429688-1.879883,0.786133-3.120117,1.069336s-2.592773,0.424805-4.057617,0.424805
		c-1.425781,0-2.753906-0.166016-3.984375-0.498047s-2.294922-0.913086-3.193359-1.743164s-1.606445-1.943359-2.124023-3.339844
		s-0.776367-3.149414-0.776367-5.258789V57.043251h-4.277344v-3.779297l4.921875-2.988281l2.578125-6.914062h5.712891v6.972656
		h7.96875v6.708984h-7.96875v15.791504c0,1.269531,0.3125,2.207031,0.9375,2.8125S314.883698,76.555458,315.899323,76.555458z"/>
</g>
<g id="b1">
	<path fill="none" d="M19.418139,63.854198c0-11.045715,8.954315-20,19.999998-20c11.045715,0,20,8.954315,20,20
		c0,11.045712-8.954315,19.999996-20,19.999996C28.372423,83.854195,19.418139,74.899879,19.418139,63.854198z"/>
	<g>
		<path fill="#FFFFFF" d="M40.032631,72.998817c-1.25,0-2.401367-0.182617-3.453125-0.546875
			c-1.052246-0.364258-1.958496-0.914062-2.71875-1.648438c-0.760742-0.734375-1.351562-1.661133-1.773438-2.78125
			s-0.632812-2.43457-0.632812-3.945312c0-1.531738,0.192383-2.870117,0.578125-4.016113
			c0.385254-1.145508,0.924316-2.101562,1.617188-2.867188c0.692383-0.765625,1.525879-1.34082,2.5-1.726562
			c0.973633-0.385254,2.054688-0.578125,3.242188-0.578125c1.15625,0,2.200195,0.174805,3.132812,0.523438
			c0.932129,0.349121,1.723633,0.862305,2.375,1.539062c0.650879,0.677246,1.150879,1.507812,1.5,2.492188
			c0.348633,0.984375,0.523438,2.112305,0.523438,3.382812v2.312988h-10.65625
			c0.020508,0.666992,0.127441,1.268555,0.320312,1.804688c0.192383,0.536133,0.463379,0.989258,0.8125,1.359375
			c0.348633,0.370117,0.770508,0.65332,1.265625,0.851562c0.494629,0.198242,1.05957,0.296875,1.695312,0.296875
			c0.53125,0,1.033691-0.02832,1.507812-0.085938c0.473633-0.057617,0.93457-0.143555,1.382812-0.257812
			c0.447754-0.114258,0.890625-0.257812,1.328125-0.429688s0.885254-0.37207,1.34375-0.601562v3.6875
			c-0.416992,0.21875-0.835938,0.40332-1.257812,0.554688s-0.867188,0.27832-1.335938,0.382812
			c-0.46875,0.103516-0.974121,0.179688-1.515625,0.226562C41.271889,72.97538,40.678139,72.998817,40.032631,72.998817z
			 M39.423256,58.279579c-0.84375,0-1.544434,0.296875-2.101562,0.890625c-0.557617,0.59375-0.87793,1.526367-0.960938,2.796875
			h6.078125c-0.010742-0.53125-0.078125-1.020508-0.203125-1.46875c-0.125-0.447754-0.3125-0.835938-0.5625-1.164062
			s-0.5625-0.585938-0.9375-0.773438S39.923256,58.279579,39.423256,58.279579z"/>
	</g>
</g>
<g id="b2">
	<path fill="none" d="M77.115128,39.687206c0-11.045717,8.954315-20.000002,20-20.000002s20,8.954315,20,20.000002
		c0,11.045715-8.954315,20-20,20S77.115128,50.732891,77.115128,39.687206z"/>
	<g>
		<path fill="#FFFFFF" d="M94.309486,51.066689c-0.895996,0-1.713867-0.192871-2.453125-0.578125
			c-0.739746-0.385254-1.375-0.955566-1.90625-1.710938c-0.53125-0.754883-0.945312-1.695312-1.242188-2.820312
			s-0.445312-2.426758-0.445312-3.90625c0-1.5,0.148438-2.814941,0.445312-3.945312
			c0.296875-1.129883,0.71875-2.078125,1.265625-2.84375s1.200195-1.34082,1.960938-1.726562
			c0.760254-0.385254,1.598633-0.578125,2.515625-0.578125c0.5625,0,1.078125,0.06543,1.546875,0.195312
			c0.46875,0.130371,0.890625,0.3125,1.265625,0.546875s0.710938,0.505371,1.007812,0.8125
			c0.296875,0.307617,0.55957,0.643555,0.789062,1.007812h0.15625c-0.0625-0.40625-0.120117-0.817383-0.171875-1.234375
			c-0.052246-0.354004-0.09668-0.731445-0.132812-1.132812c-0.036621-0.400879-0.054688-0.773438-0.054688-1.117188v-5.593752
			h4.765625v24.312502h-3.640625l-0.921875-2.265625h-0.203125c-0.21875,0.354492-0.46875,0.69043-0.75,1.007812
			c-0.28125,0.317871-0.606934,0.591309-0.976562,0.820312c-0.370117,0.229492-0.786621,0.411621-1.25,0.546875
			C95.415932,50.998817,94.892494,51.066689,94.309486,51.066689z M96.043861,47.269814c0.5625,0,1.041504-0.096191,1.4375-0.289062
			c0.395508-0.192383,0.71582-0.484375,0.960938-0.875c0.244629-0.390625,0.426758-0.877441,0.546875-1.460938
			c0.119629-0.583008,0.18457-1.265625,0.195312-2.046875v-0.515625c0-0.84375-0.052246-1.59375-0.15625-2.25
			c-0.104492-0.65625-0.276367-1.205566-0.515625-1.648438c-0.239746-0.442383-0.5625-0.77832-0.96875-1.007812
			c-0.40625-0.229004-0.916992-0.34375-1.53125-0.34375c-1,0-1.734375,0.450684-2.203125,1.351562
			c-0.46875,0.901367-0.703125,2.210938-0.703125,3.929688s0.236816,3.007812,0.710938,3.867188
			C94.290932,46.840126,95.033119,47.269814,96.043861,47.269814z"/>
	</g>
</g>
<g id="b3">
	<path fill="none" d="M121.04213,73.021187c0-11.045712,8.954315-19.999996,20-19.999996s20,8.954315,20,19.999996
		c0,11.045715-8.954315,20-20,20S121.04213,84.066872,121.04213,73.021187z"/>
	<g>
		<path fill="#FFFFFF" d="M149.125885,61.20536v2.594238l-2.546875,0.796875c0.208008,0.354492,0.354004,0.72168,0.4375,1.101562
			c0.083008,0.379883,0.125,0.789062,0.125,1.226562c0,0.885742-0.140625,1.695312-0.421875,2.429688
			s-0.698242,1.362305-1.25,1.882812c-0.552246,0.520508-1.245117,0.924805-2.078125,1.210938
			c-0.833496,0.286133-1.802246,0.429688-2.90625,0.429688c-0.239746,0-0.5-0.012695-0.78125-0.039062
			s-0.489746-0.054688-0.625-0.085938c-0.208496,0.176758-0.372559,0.362305-0.492188,0.554688
			c-0.120117,0.192383-0.179688,0.424805-0.179688,0.695312c0,0.21875,0.067383,0.393555,0.203125,0.523438
			c0.135254,0.129883,0.3125,0.234375,0.53125,0.3125s0.473633,0.129883,0.765625,0.15625
			c0.291504,0.026367,0.59375,0.039062,0.90625,0.039062h2.71875c0.84375,0,1.598633,0.09668,2.265625,0.289062
			c0.666504,0.192383,1.231445,0.487305,1.695312,0.882812c0.463379,0.395508,0.820312,0.898438,1.070312,1.507812
			s0.375,1.335938,0.375,2.179688c0,0.989258-0.198242,1.882812-0.59375,2.679688
			c-0.395996,0.796875-0.987305,1.473633-1.773438,2.03125c-0.786621,0.556641-1.763184,0.984375-2.929688,1.28125
			c-1.166992,0.296875-2.515625,0.445312-4.046875,0.445312c-1.1875,0-2.224121-0.112305-3.109375-0.335938
			c-0.885742-0.224609-1.625-0.546875-2.21875-0.96875s-1.039062-0.929688-1.335938-1.523438s-0.445312-1.265625-0.445312-2.015625
			c0-0.635742,0.109375-1.1875,0.328125-1.65625s0.510254-0.870117,0.875-1.203125
			c0.364258-0.333008,0.77832-0.604492,1.242188-0.8125c0.463379-0.208008,0.939941-0.370117,1.429688-0.484375
			c-0.21875-0.09375-0.435059-0.223633-0.648438-0.390625c-0.213867-0.166992-0.40625-0.359375-0.578125-0.578125
			s-0.3125-0.460938-0.421875-0.726562s-0.164062-0.543945-0.164062-0.835938c0-0.333008,0.049316-0.635742,0.148438-0.90625
			c0.098633-0.270508,0.242188-0.523438,0.429688-0.757812s0.421875-0.456055,0.703125-0.664062
			s0.598633-0.421875,0.953125-0.640625c-0.916992-0.395508-1.643555-1.03125-2.179688-1.90625
			c-0.536621-0.875-0.804688-1.90625-0.804688-3.09375c0-0.9375,0.145508-1.776367,0.4375-2.515625
			c0.291504-0.739746,0.71875-1.367676,1.28125-1.883301s1.260254-0.908691,2.09375-1.179688
			c0.833008-0.270508,1.791504-0.40625,2.875-0.40625c0.208008,0,0.442383,0.013184,0.703125,0.039062
			c0.260254,0.026367,0.518066,0.057617,0.773438,0.09375c0.254883,0.036621,0.492188,0.075684,0.710938,0.117188
			c0.21875,0.041992,0.390625,0.078125,0.515625,0.109375H149.125885z M136.625885,81.112099
			c0,0.259766,0.054688,0.512695,0.164062,0.757812c0.109375,0.244141,0.289062,0.460938,0.539062,0.648438
			s0.578125,0.335938,0.984375,0.445312s0.90625,0.164062,1.5,0.164062c1.625,0,2.848633-0.229492,3.671875-0.6875
			c0.822754-0.458984,1.234375-1.073242,1.234375-1.84375c0-0.65625-0.255371-1.09375-0.765625-1.3125
			c-0.510742-0.21875-1.302246-0.328125-2.375-0.328125h-2.203125c-0.28125,0-0.583496,0.033203-0.90625,0.101562
			c-0.323242,0.067383-0.620117,0.18457-0.890625,0.351562c-0.270996,0.166016-0.497559,0.387695-0.679688,0.664062
			C136.716705,80.348427,136.625885,80.695107,136.625885,81.112099z M138.344635,66.893349
			c0,0.948242,0.176758,1.682617,0.53125,2.203125c0.354004,0.520508,0.890625,0.78125,1.609375,0.78125
			c0.75,0,1.291504-0.260742,1.625-0.78125c0.333008-0.520508,0.5-1.254883,0.5-2.203125
			c0-0.9375-0.164062-1.682617-0.492188-2.234375s-0.872559-0.828125-1.632812-0.828125
			C139.058014,63.830849,138.344635,64.851357,138.344635,66.893349z"/>
	</g>
</g>
<g id="b4">
	<path fill="none" d="M179.444138,66.446205c0-11.045681,8.954315-19.999996,20-19.999996c11.045715,0,20,8.954315,20,19.999996
		s-8.954315,20-20,20C188.398422,86.446205,179.444138,77.49189,179.444138,66.446205z"/>
	<g>
		<path fill="#FFFFFF" d="M200.058502,75.589638c-1.25,0-2.401367-0.182617-3.453125-0.546875
			c-1.052734-0.364258-1.958984-0.914062-2.71875-1.648438c-0.760742-0.734375-1.351562-1.661133-1.773438-2.78125
			s-0.632812-2.43457-0.632812-3.945312c0-1.53125,0.192383-2.870117,0.578125-4.016113
			c0.384766-1.145508,0.923828-2.101562,1.617188-2.867188c0.692383-0.765625,1.525391-1.34082,2.5-1.726562
			c0.973633-0.385254,2.054688-0.578125,3.242188-0.578125c1.15625,0,2.200195,0.174805,3.132812,0.523438
			c0.931641,0.349121,1.723633,0.862305,2.375,1.539062c0.650391,0.677246,1.150391,1.507812,1.5,2.492188
			c0.348633,0.984375,0.523438,2.112793,0.523438,3.383301v2.3125h-10.65625c0.020508,0.666992,0.126953,1.268555,0.320312,1.804688
			c0.192383,0.536133,0.462891,0.989258,0.8125,1.359375c0.348633,0.370117,0.770508,0.65332,1.265625,0.851562
			c0.494141,0.198242,1.05957,0.296875,1.695312,0.296875c0.53125,0,1.033203-0.02832,1.507812-0.085938
			c0.473633-0.057617,0.93457-0.143555,1.382812-0.257812c0.447266-0.114258,0.890625-0.257812,1.328125-0.429688
			s0.884766-0.37207,1.34375-0.601562v3.6875c-0.416992,0.21875-0.835938,0.40332-1.257812,0.554688
			s-0.867188,0.27832-1.335938,0.382812c-0.46875,0.103516-0.974609,0.179688-1.515625,0.226562
			C201.29776,75.5662,200.70401,75.589638,200.058502,75.589638z M199.449127,60.870399
			c-0.84375,0-1.544922,0.296875-2.101562,0.890625c-0.557617,0.59375-0.87793,1.526367-0.960938,2.797363h6.078125
			c-0.010742-0.53125-0.078125-1.020996-0.203125-1.469238c-0.125-0.447754-0.3125-0.835938-0.5625-1.164062
			s-0.5625-0.585938-0.9375-0.773438S199.949127,60.870399,199.449127,60.870399z"/>
	</g>
</g>
</svg>
