<?xml version="1.0" encoding="utf-8"?>
<!-- Generator: Adobe Illustrator 17.0.0, SVG Export Plug-In . SVG Version: 6.00 Build 0)  -->
<!DOCTYPE svg PUBLIC "-//W3C//DTD SVG 1.1//EN" "http://www.w3.org/Graphics/SVG/1.1/DTD/svg11.dtd">
<svg version="1.1" id="Layer_1" xmlns="http://www.w3.org/2000/svg" xmlns:xlink="http://www.w3.org/1999/xlink" x="0px" y="0px"
	 width="340.157501px" height="113.385796px" viewBox="0 0 340.157501 113.385796"
	 enable-background="new 0 0 340.157501 113.385796" xml:space="preserve">
<g id="connectors">
	<path d="M182.878403,55.2402c-7.943604,11.742901-17.820999,12.8549-28.176697,3.1721l2.906296,25.814903
		C165.551605,72.4842,175.428894,71.3722,185.784698,81.055L182.878403,55.2402z"/>
	<path d="M136.779205,53.480801c-12.079201,2.635201-18.984207-2.604599-19.697403-14.9473L101.378105,59.2276
		c12.079193-2.635201,18.9842,2.604599,19.697395,14.947296L136.779205,53.480801z"/>
	<path d="M78.069702,33.582199c-4.904999,15.301903-15.2962,19.6544-29.642399,12.416l10.036301,23.960999
		c4.904999-15.301899,15.2962-19.6544,29.642399-12.4161L78.069702,33.582199z"/>
</g>
<g id="cbg">
	<path d="M179.444214,66.446198c0-11.045696,8.954285-19.999996,20-19.999996c11.045685,0,20,8.9543,20,19.999996
		s-8.954315,20-20,20C188.398499,86.446198,179.444214,77.491898,179.444214,66.446198z"/>
	<path d="M121.042206,73.021202c0-11.045803,8.9543-20.000004,20-20.000004c11.045593,0,20,8.9543,20,20.000004s-8.954407,20-20,20
		C129.996506,93.021202,121.042206,84.066803,121.042206,73.021202z"/>
	<path d="M77.115204,39.687199c0-11.045698,8.9543-19.999998,20-19.999998c11.045601,0,20,8.9543,20,19.999998s-8.954399,20-20,20
		C86.069504,59.687199,77.115204,50.732899,77.115204,39.687199z"/>
	<path d="M19.418207,63.854198c0-11.0457,8.954296-20,20.000002-20c11.045692,0,20,8.9543,20,20s-8.954407,20.000004-20,20.000004
		C28.372404,83.854202,19.418207,74.899902,19.418207,63.854198z"/>
</g>
<g id="net">
	<path d="M258.536102,83.0886h-8.935608V63.957802c0-2.3638-0.3564-4.136303-1.06929-5.317902
		c-0.712906-1.181599-1.850601-1.772499-3.413101-1.772499c-1.17189,0-2.148407,0.234398-2.929703,0.703197
		c-0.781189,0.4687-1.401306,1.162102-1.860306,2.080002c-0.459,0.917999-0.786194,2.0508-0.981491,3.398499
		c-0.195312,1.348103-0.292908,2.891102-0.292908,4.629398V83.0886h-8.935593V50.334202h6.826202l1.201187,4.189499h0.498001
		c0.468719-0.839901,1.040009-1.5625,1.713898-2.167999c0.673813-0.6054,1.411102-1.1035,2.211914-1.494102
		c0.800797-0.390598,1.650391-0.678699,2.548798-0.8643c0.898392-0.185501,1.816391-0.278297,2.753891-0.278297
		c1.601608,0,3.056702,0.2295,4.365219,0.688499c1.308578,0.459,2.431686,1.176701,3.369186,2.153297
		c0.937485,0.976601,1.66011,2.221703,2.167984,3.735401c0.507812,1.513599,0.761719,3.3251,0.761719,5.434502V83.0886z"/>
	<path d="M282.120087,83.674599c-2.343781,0-4.501984-0.341797-6.474579-1.025398
		c-1.972717-0.683601-3.671906-1.713898-5.097717-3.090797c-1.425781-1.377007-2.53418-3.115303-3.325195-5.214905
		c-0.790985-2.099602-1.186493-4.565399-1.186493-7.3974c0-2.871101,0.361298-5.381397,1.083984-7.529797
		c0.722626-2.148502,1.733398-3.940502,3.032196-5.376003c1.298828-1.4356,2.861328-2.514698,4.6875-3.237297
		c1.826202-0.722702,3.852509-1.084,6.079102-1.084c2.167999,0,4.126007,0.327198,5.874023,0.981499
		c1.748077,0.654198,3.232391,1.616199,4.453094,2.8857s2.158203,2.827099,2.8125,4.672798s0.981506,3.960003,0.981506,6.343304
		v4.335899h-19.980499c0.039093,1.25,0.239288,2.377998,0.600586,3.383797c0.361298,1.005905,0.86911,1.855499,1.523407,2.548904
		c0.654297,0.693298,1.445282,1.225494,2.373108,1.596596c0.927673,0.371101,1.987274,0.556702,3.17868,0.556702
		c0.996094,0,1.938507-0.053703,2.827118-0.161201c0.888702-0.107399,1.752991-0.268501,2.592804-0.483299
		c0.839874-0.214897,1.669891-0.483398,2.490295-0.805702c0.820282-0.322296,1.660095-0.698296,2.519501-1.127899V81.3601
		c-0.781311,0.410202-1.567413,0.756897-2.358398,1.0401c-0.791016,0.283203-1.626007,0.5224-2.504913,0.717697
		c-0.878906,0.195305-1.826202,0.336906-2.841797,0.424805S283.330994,83.674599,282.120087,83.674599z M280.977509,56.076401
		c-1.582001,0-2.895508,0.556698-3.940399,1.669899c-1.045013,1.1133-1.645599,2.861401-1.801819,5.244202h11.396515
		c-0.019592-0.996101-0.146515-1.914101-0.38092-2.753902c-0.234375-0.839897-0.585876-1.567398-1.054688-2.182598
		c-0.468689-0.615299-1.054688-1.098701-1.757812-1.450199C282.735291,56.252201,281.915009,56.076401,280.977509,56.076401z"/>
	<path d="M315.899384,76.555397c0.878906,0,1.713837-0.097595,2.504822-0.2929
		c0.791077-0.195297,1.59668-0.439499,2.416992-0.732498v6.650398c-0.839813,0.429703-1.879913,0.786201-3.120087,1.069405
		c-1.240204,0.283195-2.592804,0.424797-4.057617,0.424797c-1.425812,0-2.753906-0.166-3.984406-0.4981
		c-1.230377-0.332001-2.294891-0.913101-3.193298-1.743095c-0.898499-0.830101-1.606506-1.943405-2.124084-3.339905
		c-0.517487-1.3965-0.776306-3.149399-0.776306-5.258797v-15.7915h-4.277405v-3.779301l4.921906-2.9883l2.578094-6.914001h5.712891
		v6.972603h7.968811v6.709h-7.968811v15.7915c0,1.2696,0.3125,2.2071,0.9375,2.8125
		C314.063385,76.252701,314.883698,76.555397,315.899384,76.555397z"/>
</g>
<g id="b1">
	<path fill="none" d="M19.418207,63.854198c0-11.0457,8.954296-20,20.000002-20c11.045692,0,20,8.9543,20,20
		s-8.954407,20.000004-20,20.000004C28.372404,83.854202,19.418207,74.899902,19.418207,63.854198z"/>
	<g>
		<path fill="#FFFFFF" d="M40.032703,72.998802c-1.25,0-2.401402-0.182602-3.453201-0.546906
			c-1.0522-0.364197-1.9585-0.913994-2.7187-1.648399c-0.760799-0.734398-1.351593-1.661194-1.773499-2.781296
			c-0.421799-1.120102-0.632799-2.434502-0.632799-3.945305c0-1.531696,0.1924-2.870098,0.578199-4.016098
			c0.385201-1.1455,0.924301-2.101597,1.6171-2.867199c0.692406-0.765598,1.525902-1.340801,2.5-1.726501
			c0.973701-0.3853,2.054699-0.578197,3.242199-0.578197c1.1563,0,2.200207,0.174801,3.132801,0.523499
			c0.932201,0.349102,1.723701,0.862301,2.375,1.539001c0.650902,0.677299,1.150902,1.507801,1.5,2.492199
			c0.348701,0.984402,0.523499,2.112301,0.523499,3.382801v2.312996h-10.6563c0.0205,0.667,0.127502,1.2686,0.320301,1.804703
			c0.192402,0.536102,0.463402,0.989304,0.8125,1.359398c0.348701,0.370102,0.770599,0.653305,1.265701,0.851501
			c0.494598,0.198303,1.059498,0.296898,1.695297,0.296898c0.5312,0,1.033703-0.028297,1.507801-0.085899
			c0.473606-0.057594,0.934605-0.1436,1.382801-0.257797c0.447803-0.114304,0.890598-0.257797,1.328098-0.429703
			c0.4375-0.171898,0.8853-0.372101,1.3438-0.601601v3.6875c-0.417,0.218803-0.835999,0.403305-1.257797,0.554703
			c-0.421902,0.151398-0.867203,0.278297-1.336002,0.382797c-0.4687,0.1035-0.974098,0.179703-1.515598,0.226601
			C41.271904,72.975403,40.678207,72.998802,40.032703,72.998802z M39.423302,58.279598
			c-0.8438,0-1.544498,0.296803-2.101597,0.890602c-0.557602,0.5937-0.877903,1.526299-0.960903,2.796898h6.078102
			c-0.010696-0.5313-0.078102-1.020599-0.203102-1.4688c-0.125-0.4478-0.3125-0.835899-0.5625-1.164097
			c-0.25-0.328102-0.5625-0.585903-0.9375-0.773403S39.923302,58.279598,39.423302,58.279598z"/>
	</g>
</g>
<g id="b2">
	<path fill="none" d="M77.115204,39.687199c0-11.045698,8.9543-19.999998,20-19.999998c11.045601,0,20,8.9543,20,19.999998
		s-8.954399,20-20,20C86.069504,59.687199,77.115204,50.732899,77.115204,39.687199z"/>
	<g>
		<path fill="#FFFFFF" d="M94.309502,51.0667c-0.895996,0-1.713898-0.192902-2.453102-0.578201
			c-0.739799-0.385201-1.375-0.955498-1.906296-1.710899c-0.531204-0.754898-0.945305-1.695301-1.242104-2.820301
			c-0.296898-1.125-0.445396-2.4268-0.445396-3.9063c0-1.5,0.148499-2.814899,0.445396-3.945297
			c0.296799-1.129902,0.718704-2.078102,1.265602-2.8437C90.5205,34.4963,91.173805,33.9212,91.934502,33.5354
			c0.7603-0.385201,1.598602-0.578102,2.515602-0.578102c0.5625,0,1.078201,0.065403,1.546898,0.195301
			c0.468803,0.130402,0.890602,0.3125,1.265602,0.546902c0.375,0.234299,0.710999,0.505299,1.007896,0.8125
			c0.296799,0.307598,0.559502,0.643497,0.789001,1.007797h0.156303c-0.0625-0.4063-0.120201-0.817398-0.171906-1.234398
			c-0.052299-0.354-0.096695-0.7314-0.132797-1.132801C98.874504,32.751701,98.8564,32.3792,98.8564,32.0354v-5.5937h4.765602
			v24.3125H99.9814l-0.921898-2.265701H98.8564c-0.218796,0.3545-0.468796,0.690502-0.75,1.007801
			c-0.281296,0.317902-0.606895,0.5914-0.976601,0.8204c-0.370094,0.2295-0.786591,0.411598-1.25,0.546799
			C95.416,50.998798,94.892502,51.0667,94.309502,51.0667z M96.0439,47.269798c0.5625,0,1.041504-0.096199,1.4375-0.289097
			c0.3955-0.192402,0.715805-0.484402,0.960899-0.875c0.244705-0.390602,0.426804-0.877403,0.546906-1.460903
			c0.119598-0.583,0.184601-1.265598,0.195297-2.046898v-0.515602c0-0.8438-0.0522-1.5938-0.156197-2.25
			c-0.1045-0.6563-0.276405-1.205597-0.515701-1.648499c-0.2397-0.442299-0.5625-0.778301-0.968704-1.007801
			c-0.406296-0.229-0.917-0.3437-1.531296-0.3437c-1,0-1.734299,0.450703-2.203102,1.351501
			c-0.468697,0.901402-0.703102,2.210999-0.703102,3.929699c0,1.7188,0.236809,3.007801,0.710899,3.867203
			C94.291,46.840099,95.033104,47.269798,96.0439,47.269798z"/>
	</g>
</g>
<g id="b3">
	<path fill="none" d="M121.042206,73.021202c0-11.045803,8.9543-20.000004,20-20.000004c11.045593,0,20,8.9543,20,20.000004
		s-8.954407,20-20,20C129.996506,93.021202,121.042206,84.066803,121.042206,73.021202z"/>
	<g>
		<path fill="#FFFFFF" d="M149.1259,61.205299v2.594299l-2.546906,0.796799c0.208099,0.3545,0.354004,0.721703,0.4375,1.101601
			c0.083099,0.379906,0.125,0.789101,0.125,1.226601c0,0.885704-0.140594,1.695305-0.421799,2.429703
			c-0.281296,0.734299-0.698288,1.362297-1.25,1.882797c-0.552292,0.5205-1.245102,0.924805-2.078201,1.210899
			c-0.833496,0.286102-1.8022,0.429703-2.906189,0.429703c-0.239807,0-0.5-0.012703-0.781311-0.039101
			c-0.281189-0.026299-0.4897-0.054703-0.625-0.085899c-0.208496,0.176796-0.372498,0.362297-0.492096,0.554703
			c-0.120193,0.192398-0.179688,0.424797-0.179688,0.695297c0,0.218697,0.067383,0.3936,0.203094,0.523399
			c0.135193,0.129898,0.3125,0.234398,0.531189,0.3125c0.218811,0.078201,0.473709,0.129898,0.765717,0.156303
			c0.291489,0.026398,0.593689,0.038994,0.906189,0.038994h2.718811c0.843689,0,1.598587,0.096703,2.265594,0.289101
			c0.666489,0.192406,1.2314,0.487305,1.695297,0.882805c0.463394,0.3955,0.820297,0.898499,1.070297,1.507797
			c0.25,0.609398,0.375,1.335999,0.375,2.179703c0,0.989296-0.198196,1.882797-0.593704,2.679695
			c-0.395996,0.796906-0.987289,1.473602-1.773483,2.031303c-0.786606,0.556595-1.763214,0.984299-2.929718,1.281197
			c-1.166901,0.296906-2.515594,0.445305-4.046799,0.445305c-1.187485,0-2.224197-0.112305-3.10939-0.335899
			c-0.885712-0.224602-1.625-0.546906-2.218811-0.968803c-0.593689-0.421799-1.038986-0.929703-1.335892-1.523399
			c-0.296906-0.593803-0.445297-1.265602-0.445297-2.015602c0-0.635796,0.10939-1.1875,0.328094-1.656296
			c0.218811-0.468704,0.5103-0.870102,0.875-1.203102c0.364304-0.333,0.778305-0.6045,1.242203-0.8125
			c0.463394-0.208,0.939896-0.370102,1.429703-0.484398c-0.218811-0.093704-0.435104-0.223602-0.648407-0.390602
			c-0.213898-0.167-0.406296-0.359398-0.578201-0.578102c-0.171799-0.218796-0.312485-0.460999-0.421799-0.726601
			c-0.109406-0.265594-0.164093-0.5439-0.164093-0.835899c0-0.333,0.049301-0.635796,0.148407-0.906296
			c0.098694-0.2705,0.242188-0.523399,0.429688-0.757805c0.1875-0.234398,0.421906-0.456001,0.703094-0.664101
			c0.281311-0.208,0.598709-0.421799,0.953217-0.640594c-0.917007-0.3955-1.643616-1.031204-2.179718-1.906204
			c-0.536591-0.875-0.804688-1.906296-0.804688-3.093796c0-0.9375,0.145493-1.776306,0.4375-2.515602
			c0.291489-0.7397,0.718689-1.367702,1.281189-1.883301s1.2603-0.908699,2.093811-1.179699
			c0.832993-0.2705,1.791489-0.4062,2.875-0.4062c0.207993,0,0.442398,0.0131,0.703094,0.038998
			c0.2603,0.026402,0.518097,0.057602,0.773499,0.093803c0.254807,0.036598,0.492096,0.075699,0.710907,0.117199
			c0.218689,0.042,0.390594,0.078098,0.515594,0.109299H149.1259z M136.6259,81.112099
			c0,0.259705,0.054703,0.512703,0.164093,0.757805c0.109406,0.244095,0.289001,0.460899,0.539001,0.648399
			s0.578217,0.335999,0.984406,0.445297c0.406296,0.109398,0.906296,0.164101,1.5,0.164101c1.625,0,2.848694-0.2295,3.671906-0.6875
			c0.822693-0.459,1.23439-1.073204,1.23439-1.843803c0-0.656197-0.255402-1.093697-0.765701-1.3125
			c-0.510696-0.218697-1.3022-0.328094-2.375-0.328094H139.3759c-0.281204,0-0.583496,0.033195-0.906204,0.101601
			c-0.323288,0.067398-0.620102,0.184593-0.890701,0.351494c-0.270996,0.1661-0.497498,0.387703-0.679596,0.664101
			C136.716705,80.348396,136.6259,80.695099,136.6259,81.112099z M138.344696,66.893303
			c0,0.948296,0.176712,1.682594,0.531204,2.203094c0.354004,0.520599,0.890594,0.781303,1.609406,0.781303
			c0.75,0,1.291489-0.260704,1.625-0.781303c0.332993-0.5205,0.5-1.254799,0.5-2.203094
			c0-0.9375-0.164093-1.682602-0.492203-2.234406c-0.32811-0.551697-0.872604-0.828098-1.632797-0.828098
			C139.057999,63.830799,138.344696,64.851303,138.344696,66.893303z"/>
	</g>
</g>
<g id="b4">
	<path fill="none" d="M179.444214,66.446198c0-11.045696,8.954285-19.999996,20-19.999996c11.045685,0,20,8.9543,20,19.999996
		s-8.954315,20-20,20C188.398499,86.446198,179.444214,77.491898,179.444214,66.446198z"/>
	<g>
		<path fill="#FFFFFF" d="M200.058502,75.5896c-1.25,0-2.401291-0.182602-3.45311-0.546898
			c-1.052689-0.364204-1.959-0.914001-2.718689-1.648399c-0.760803-0.734406-1.351608-1.661102-1.773499-2.781303
			c-0.421906-1.120102-0.632812-2.434502-0.632812-3.945297c0-1.531204,0.192413-2.870102,0.57811-4.016102
			c0.384796-1.1455,0.923904-2.101501,1.617203-2.867199c0.692398-0.765602,1.525391-1.340801,2.5-1.726501
			c0.973694-0.3853,2.054688-0.578201,3.242188-0.578201c1.156311,0,2.200211,0.1749,3.132812,0.523502
			c0.931702,0.349098,1.723694,0.862301,2.375,1.538998c0.650391,0.677303,1.150391,1.5079,1.5,2.492203
			c0.348694,0.984398,0.523499,2.112801,0.523499,3.383301v2.3125h-10.656311c0.020508,0.667,0.127014,1.2686,0.320312,1.804695
			c0.192398,0.536201,0.462891,0.989304,0.8125,1.359406c0.348694,0.370094,0.770508,0.653297,1.265594,0.851601
			c0.494202,0.198196,1.059601,0.296799,1.695404,0.296799c0.531189,0,1.033203-0.028305,1.507797-0.085899
			c0.473602-0.057602,0.934494-0.1436,1.382797-0.257805c0.447296-0.114296,0.890594-0.257797,1.328094-0.429695
			c0.4375-0.171906,0.884811-0.372101,1.343811-0.601601v3.6875c-0.416992,0.218796-0.835999,0.403397-1.257904,0.554695
			c-0.421799,0.151405-0.867096,0.278305-1.335907,0.382805c-0.468689,0.1036-0.974594,0.179695-1.515594,0.226601
			C201.297806,75.5662,200.703995,75.5896,200.058502,75.5896z M199.449203,60.870399
			c-0.843811,0-1.544998,0.296799-2.101608,0.890602c-0.557602,0.593697-0.877899,1.526398-0.960892,2.797401h6.078094
			c-0.010803-0.531303-0.078094-1.021004-0.203094-1.469303c-0.125-0.447701-0.3125-0.835899-0.5625-1.164001
			c-0.25-0.328197-0.5625-0.585999-0.9375-0.773499S199.949203,60.870399,199.449203,60.870399z"/>
	</g>
</g>
</svg>
